<svg id="svg" version="1.1" xmlns="http://www.w3.org/2000/svg" xmlns:xlink="http://www.w3.org/1999/xlink" width="400" height="400" viewBox="0, 0, 400,400"><g id="svgg"><path id="path0" d="M104.875 58.362 C 100.257 70.509,105.904 107.066,115.267 125.636 C 129.865 154.589,163.493 176.872,192.637 176.905 L 195.449 176.908 198.406 187.630 C 201.432 198.603,204.007 210.381,204.449 215.264 L 204.697 218.004 167.123 218.395 C 119.564 218.891,121.883 217.833,123.593 238.245 C 124.759 252.166,127.195 257.205,133.524 258.794 C 134.567 259.055,135.421 259.775,135.421 260.392 C 135.421 266.841,143.608 333.411,144.974 338.067 C 149.263 352.690,162.180 364.350,177.652 367.564 C 187.909 369.694,252.227 368.851,259.261 366.493 C 274.772 361.294,286.355 348.075,289.230 332.290 C 290.208 326.924,293.414 299.407,296.725 267.962 C 297.617 259.491,297.716 259.182,299.822 258.310 C 305.478 255.967,307.193 251.735,308.491 236.908 C 310.215 217.236,312.986 218.398,264.336 218.397 L 226.910 218.395 227.413 214.677 C 228.123 209.439,231.440 195.422,233.320 189.716 L 234.903 184.911 240.152 184.390 C 291.359 179.310,327.202 132.240,327.202 70.072 C 327.202 56.667,328.598 57.177,308.007 63.049 C 247.601 80.273,211.786 125.568,223.124 170.401 L 224.721 176.717 222.037 185.619 C 220.561 190.515,218.555 198.004,217.578 202.262 L 215.803 210.004 214.080 201.479 C 212.466 193.498,210.072 184.843,206.598 174.437 L 205.120 170.008 207.351 165.043 C 230.308 113.942,184.824 60.383,115.290 56.639 L 105.726 56.124 104.875 58.362 M127.357 70.094 C 178.551 76.795,210.521 114.466,199.560 155.172 L 198.735 158.236 191.872 147.807 C 174.583 121.536,150.711 96.960,146.536 101.135 C 144.833 102.838,145.525 103.957,152.866 111.357 C 167.071 125.678,189.344 157.437,189.419 163.479 C 189.450 165.930,173.154 161.746,163.209 156.748 C 134.437 142.290,117.599 114.424,115.360 77.559 C 114.743 67.397,113.355 68.261,127.357 70.094 M314.743 84.456 C 310.828 128.737,283.392 162.998,245.177 171.326 C 241.069 172.222,241.108 171.912,246.347 162.035 C 255.235 145.283,269.924 126.607,284.344 113.725 C 288.916 109.641,289.589 108.298,287.906 106.614 C 283.109 101.817,249.675 135.000,236.555 157.581 C 228.343 171.713,229.952 146.125,238.366 128.767 C 250.284 104.182,274.406 85.254,307.241 74.721 C 316.538 71.739,315.937 70.959,314.743 84.456 M297.180 234.247 C 296.909 236.507,296.684 239.853,296.680 241.683 C 296.666 248.734,303.995 248.141,216.881 248.141 C 170.087 248.141,139.453 247.850,138.254 247.394 C 136.044 246.553,135.622 244.943,135.225 235.812 L 134.978 230.137 216.326 230.137 L 297.674 230.137 297.180 234.247 M285.714 262.119 C 285.714 267.633,278.502 329.609,277.411 333.464 C 274.925 342.253,268.274 349.799,259.240 354.079 L 254.012 356.556 217.221 356.554 C 175.876 356.552,176.791 356.669,168.130 350.295 C 155.843 341.253,154.359 335.130,147.498 265.166 L 146.980 259.883 216.347 259.883 L 285.714 259.883 285.714 262.119 M181.665 276.155 C 174.203 280.225,174.179 294.251,181.628 298.020 C 191.441 302.986,200.322 290.032,194.089 279.843 C 191.331 275.335,186.045 273.766,181.665 276.155 M241.244 276.297 C 234.398 280.588,234.821 293.780,241.927 297.591 C 253.058 303.561,261.466 286.250,251.815 277.235 C 249.052 274.654,244.509 274.251,241.244 276.297 M186.848 309.808 C 182.225 314.917,190.341 327.578,201.916 333.314 C 219.443 342.000,246.525 330.177,246.568 313.820 C 246.586 306.758,239.743 306.556,236.828 313.534 C 229.632 330.756,204.556 330.737,195.440 313.503 C 192.641 308.214,189.510 306.867,186.848 309.808 " stroke="none" fill="#000000" fill-rule="evenodd"></path></g></svg>