<svg id="svg" version="1.1" xmlns="http://www.w3.org/2000/svg" xmlns:xlink="http://www.w3.org/1999/xlink" width="400" height="400" viewBox="0, 0, 400,400"><g id="svgg"><path id="path0" d="M226.600 21.244 C 222.422 21.476,219.506 21.871,215.000 22.816 C 213.900 23.047,212.503 23.339,211.895 23.464 C 211.287 23.590,210.692 23.851,210.571 24.046 C 210.451 24.241,210.001 24.400,209.571 24.400 C 209.141 24.400,208.477 24.570,208.095 24.779 C 207.713 24.987,206.320 25.541,205.000 26.009 C 195.735 29.294,186.998 36.920,183.242 45.000 C 182.731 46.100,182.152 47.313,181.956 47.695 C 181.760 48.077,181.600 48.831,181.600 49.371 C 181.600 49.911,181.443 50.450,181.252 50.568 C 179.971 51.360,179.978 68.645,181.259 69.437 C 181.447 69.552,181.600 70.166,181.600 70.800 C 181.600 71.434,181.780 72.064,182.000 72.200 C 182.220 72.336,182.400 72.799,182.400 73.229 C 182.400 73.659,182.624 74.369,182.897 74.807 C 183.487 75.752,183.008 76.753,181.634 77.450 C 181.145 77.698,180.136 78.441,179.390 79.101 C 177.636 80.654,177.600 80.588,177.600 75.862 C 177.600 73.659,177.432 71.304,177.227 70.628 C 177.022 69.953,176.630 68.590,176.355 67.600 C 174.857 62.200,170.627 56.311,166.000 53.185 C 165.230 52.664,164.510 52.136,164.400 52.011 C 164.016 51.575,158.988 49.256,157.600 48.876 C 152.401 47.450,147.687 47.286,142.800 48.361 C 141.810 48.579,140.460 48.870,139.800 49.009 C 139.140 49.147,138.240 49.406,137.800 49.585 C 137.360 49.763,136.190 50.142,135.200 50.426 C 134.210 50.711,133.204 51.089,132.965 51.267 C 132.555 51.571,132.005 50.746,131.188 48.600 C 130.106 45.756,127.833 41.525,126.700 40.242 C 126.315 39.806,126.000 39.228,126.000 38.958 C 126.000 38.688,125.865 38.407,125.700 38.333 C 125.535 38.260,124.593 37.210,123.607 36.000 C 116.555 27.347,107.663 23.619,93.800 23.503 C 87.576 23.451,86.991 23.551,82.097 25.497 C 73.453 28.935,63.219 40.689,58.847 52.200 C 58.346 53.520,57.770 54.913,57.568 55.295 C 57.366 55.677,57.200 56.341,57.200 56.771 C 57.200 57.201,57.020 57.664,56.800 57.800 C 56.580 57.936,56.400 58.566,56.400 59.200 C 56.400 59.834,56.240 60.452,56.044 60.573 C 55.849 60.694,55.586 61.379,55.461 62.096 C 55.336 62.813,55.044 64.390,54.814 65.600 C 53.704 71.416,53.401 76.001,53.426 86.600 C 53.449 96.905,53.679 100.379,54.776 107.000 C 54.995 108.320,55.281 110.120,55.412 111.000 C 55.542 111.880,55.806 112.960,55.998 113.400 C 56.189 113.840,56.437 114.740,56.549 115.400 C 56.901 117.481,57.250 118.973,57.578 119.800 C 57.752 120.240,58.288 121.860,58.768 123.400 C 59.248 124.940,59.795 126.560,59.982 127.000 C 60.170 127.440,60.908 129.330,61.623 131.200 C 62.974 134.738,64.080 137.380,65.038 139.361 C 65.347 140.000,65.600 140.678,65.600 140.867 C 65.600 141.056,66.005 141.837,66.500 142.601 C 68.727 146.041,72.698 145.913,76.600 142.276 C 79.421 139.647,89.656 133.758,95.900 131.173 C 96.395 130.968,97.295 130.599,97.900 130.353 C 98.505 130.108,99.313 129.748,99.695 129.553 C 100.077 129.359,100.741 129.200,101.171 129.200 C 101.601 129.200,102.064 129.020,102.200 128.800 C 102.336 128.580,102.876 128.400,103.400 128.400 C 103.924 128.400,104.464 128.220,104.600 128.000 C 104.736 127.780,105.276 127.600,105.800 127.600 C 106.324 127.600,106.864 127.420,107.000 127.200 C 107.136 126.980,107.676 126.800,108.200 126.800 C 108.724 126.800,109.264 126.620,109.400 126.400 C 109.536 126.180,110.166 126.000,110.800 126.000 C 111.434 126.000,112.064 125.820,112.200 125.600 C 112.336 125.380,112.966 125.200,113.600 125.200 C 114.234 125.200,114.852 125.040,114.973 124.844 C 115.094 124.649,115.779 124.395,116.496 124.281 C 117.213 124.168,118.520 123.866,119.400 123.611 C 121.020 123.141,122.498 122.755,125.400 122.045 C 126.280 121.829,127.675 121.461,128.500 121.227 C 133.575 119.783,138.578 118.420,138.836 118.409 C 139.117 118.398,139.874 120.837,140.199 122.800 C 140.437 124.241,140.944 126.845,141.600 130.000 C 142.384 133.771,143.393 139.505,144.028 143.800 C 146.274 158.988,147.311 167.194,147.830 173.888 L 148.116 177.576 147.032 177.988 C 146.317 178.260,133.695 178.400,109.969 178.400 C 71.234 178.400,73.305 178.286,71.108 180.545 C 68.920 182.796,68.703 183.775,68.954 190.282 C 69.450 203.182,69.941 212.687,70.200 214.400 C 70.843 218.647,73.765 222.681,77.406 224.346 C 78.063 224.647,78.861 225.021,79.179 225.177 C 79.997 225.578,80.292 226.958,81.020 233.792 C 81.900 242.048,82.309 245.656,82.788 249.400 C 83.013 251.160,83.395 254.220,83.637 256.200 C 83.880 258.180,84.228 260.880,84.411 262.200 C 84.594 263.520,84.930 265.950,85.158 267.600 C 86.829 279.702,88.094 287.960,89.831 298.104 C 89.973 298.931,90.249 299.706,90.444 299.827 C 90.640 299.948,90.800 300.399,90.800 300.829 C 90.800 301.259,90.959 301.923,91.153 302.305 C 91.348 302.687,91.686 303.450,91.904 304.000 C 94.839 311.378,105.794 326.000,108.387 326.000 C 108.583 326.000,108.981 326.235,109.271 326.522 C 112.178 329.393,120.954 333.663,126.200 334.759 C 127.300 334.989,129.045 335.362,130.077 335.589 C 132.701 336.164,192.007 336.147,195.554 335.570 C 201.584 334.589,203.929 333.836,209.320 331.153 C 220.560 325.557,230.117 314.201,234.023 301.800 C 234.508 300.260,235.048 298.640,235.222 298.200 C 235.615 297.211,235.951 295.681,236.430 292.700 C 236.634 291.435,236.967 289.365,237.170 288.100 C 237.374 286.835,237.736 284.540,237.975 283.000 C 238.215 281.460,238.586 279.120,238.800 277.800 C 239.014 276.480,239.385 274.140,239.625 272.600 C 239.864 271.060,240.232 268.720,240.442 267.400 C 240.652 266.080,240.984 263.920,241.180 262.600 C 241.376 261.280,241.730 258.895,241.968 257.300 C 243.020 250.240,243.599 245.945,244.381 239.400 C 244.618 237.420,245.124 233.404,245.506 230.476 L 246.200 225.153 248.200 224.086 C 253.219 221.407,254.636 218.616,255.249 210.200 C 256.630 191.229,256.954 183.994,256.445 183.485 C 256.200 183.240,256.000 182.751,256.000 182.398 C 256.000 181.639,253.882 179.601,252.239 178.780 C 251.245 178.283,245.535 178.213,212.544 178.287 L 174.009 178.375 173.749 177.339 C 173.095 174.735,174.845 160.278,176.815 152.000 C 177.520 149.041,178.031 146.679,178.266 145.296 C 178.388 144.579,178.649 143.894,178.844 143.773 C 179.040 143.652,179.200 143.034,179.200 142.400 C 179.200 141.766,179.360 141.148,179.556 141.027 C 179.751 140.906,180.013 140.221,180.137 139.504 C 180.829 135.494,180.988 135.162,181.820 135.968 C 182.029 136.170,185.260 137.899,189.000 139.809 C 196.981 143.887,199.148 144.316,200.983 142.181 L 201.957 141.047 202.141 129.223 C 202.381 113.799,202.906 110.473,204.499 114.289 C 205.526 116.746,205.921 119.056,206.400 125.400 C 207.300 137.319,210.042 143.262,215.800 145.770 C 216.680 146.154,217.713 146.632,218.095 146.834 C 218.477 147.035,219.141 147.200,219.571 147.200 C 220.001 147.200,220.452 147.360,220.573 147.556 C 220.694 147.751,221.379 148.012,222.096 148.134 C 223.492 148.371,225.892 148.891,228.800 149.586 C 229.790 149.823,231.279 150.127,232.110 150.262 C 232.940 150.397,233.716 150.664,233.833 150.854 C 233.951 151.044,234.366 151.200,234.755 151.200 C 237.422 151.200,243.858 155.034,248.122 159.164 C 249.620 160.614,251.105 161.858,251.422 161.929 C 251.740 162.000,252.000 162.225,252.000 162.429 C 252.000 163.086,256.543 162.855,257.554 162.147 C 258.590 161.422,262.854 152.749,266.428 144.100 C 267.957 140.400,267.988 140.321,269.193 137.000 C 269.672 135.680,270.230 134.287,270.432 133.905 C 270.634 133.523,270.800 132.859,270.800 132.429 C 270.800 131.999,270.980 131.536,271.200 131.400 C 271.420 131.264,271.600 130.801,271.600 130.371 C 271.600 129.941,271.763 129.277,271.963 128.895 C 272.324 128.204,273.337 125.074,274.064 122.400 C 274.274 121.630,274.615 120.415,274.823 119.700 C 276.289 114.651,276.758 112.763,278.004 106.900 C 279.455 100.071,280.062 90.105,279.162 87.877 C 277.626 84.073,270.396 78.400,267.084 78.400 C 266.796 78.400,266.389 78.257,266.180 78.082 C 265.971 77.907,265.080 77.535,264.200 77.255 C 263.320 76.976,262.240 76.600,261.800 76.419 C 261.360 76.239,260.190 75.873,259.200 75.607 C 258.210 75.340,257.087 74.960,256.705 74.761 C 256.323 74.562,255.659 74.400,255.229 74.400 C 254.799 74.400,254.336 74.220,254.200 74.000 C 254.064 73.780,253.524 73.600,253.000 73.600 C 252.476 73.600,251.936 73.420,251.800 73.200 C 251.664 72.980,251.149 72.800,250.656 72.800 C 250.163 72.800,249.589 72.657,249.380 72.482 C 249.171 72.307,248.280 71.933,247.400 71.653 C 244.522 70.734,239.149 67.891,239.543 67.497 C 240.297 66.743,257.737 67.594,266.400 68.806 C 272.128 69.607,278.106 69.697,279.000 68.994 C 279.954 68.243,280.070 65.156,279.248 62.348 C 277.710 57.089,276.975 54.820,276.285 53.200 C 275.221 50.701,273.851 47.839,273.605 47.600 C 273.491 47.490,273.133 46.860,272.809 46.200 C 269.969 40.419,261.763 31.623,255.781 27.949 C 251.112 25.080,243.585 22.000,241.245 22.000 C 240.751 22.000,240.044 21.841,239.674 21.646 C 238.748 21.159,231.917 20.949,226.600 21.244 M238.272 33.200 C 239.002 33.420,240.275 33.792,241.100 34.026 C 250.334 36.652,259.259 44.331,264.676 54.312 C 266.773 58.174,266.784 58.361,264.900 58.178 C 253.338 57.049,241.669 57.140,236.800 58.395 C 232.378 59.536,231.483 59.880,229.834 61.077 C 226.393 63.574,225.343 67.930,227.437 71.016 C 230.574 75.639,236.614 78.569,257.200 85.453 C 258.190 85.784,259.763 86.403,260.696 86.827 C 261.628 87.252,262.538 87.600,262.717 87.600 C 263.420 87.600,267.134 89.664,267.845 90.450 C 269.124 91.863,268.575 98.566,266.342 108.800 C 265.937 110.659,265.833 111.082,264.374 116.800 C 263.375 120.720,261.590 126.588,260.603 129.200 C 260.228 130.190,259.559 131.990,259.116 133.200 C 258.672 134.410,258.059 135.985,257.754 136.700 C 256.602 139.402,255.867 141.074,254.807 143.400 C 254.206 144.720,253.465 146.385,253.160 147.100 C 252.462 148.735,251.973 148.730,250.101 147.065 C 246.862 144.186,240.804 140.716,237.652 139.934 C 236.222 139.580,233.326 139.041,229.400 138.399 C 223.354 137.410,218.400 134.866,218.400 132.749 C 218.400 132.363,218.240 131.948,218.044 131.827 C 217.849 131.706,217.581 130.931,217.450 130.104 C 217.029 127.451,216.383 123.080,215.987 120.200 C 213.681 103.442,211.227 98.800,204.677 98.800 C 201.890 98.800,200.541 99.508,197.901 102.360 C 195.901 104.521,195.365 105.383,193.834 108.900 C 192.587 111.767,191.600 118.338,191.600 123.778 L 191.600 128.064 190.393 127.799 C 188.071 127.288,182.957 123.847,180.144 120.900 C 172.317 112.703,171.667 104.605,178.086 95.275 C 181.521 90.283,192.249 80.800,194.463 80.800 C 195.783 80.800,195.676 79.838,194.037 76.976 C 191.360 72.303,190.669 69.728,190.485 63.750 C 190.090 50.874,196.111 42.234,209.400 36.610 C 210.280 36.237,211.313 35.768,211.695 35.566 C 212.077 35.365,212.741 35.200,213.171 35.200 C 213.601 35.200,214.064 35.020,214.200 34.800 C 214.336 34.580,214.829 34.400,215.295 34.400 C 215.762 34.400,216.696 34.229,217.372 34.019 C 218.047 33.810,219.410 33.472,220.400 33.267 C 222.867 32.758,236.633 32.707,238.272 33.200 M101.274 35.655 C 101.644 35.845,102.364 36.003,102.874 36.006 C 104.323 36.015,106.889 37.032,109.992 38.826 C 116.966 42.860,123.084 55.825,119.325 58.605 C 114.523 62.158,102.091 73.949,99.087 77.800 C 98.401 78.680,97.291 80.047,96.620 80.837 C 94.923 82.836,94.335 83.589,93.214 85.200 C 92.677 85.970,92.131 86.690,92.000 86.800 C 91.869 86.910,91.326 87.630,90.794 88.400 C 90.262 89.170,89.595 90.038,89.313 90.329 C 89.031 90.619,88.800 91.011,88.800 91.200 C 88.800 91.389,88.569 91.781,88.288 92.071 C 86.207 94.217,85.387 97.741,86.700 98.887 C 89.214 101.080,88.497 101.502,98.445 91.969 C 106.650 84.106,112.492 78.819,116.974 75.200 C 118.473 73.990,120.352 72.437,121.150 71.749 C 125.366 68.111,135.814 62.062,140.000 60.834 C 140.990 60.544,142.322 60.148,142.960 59.953 C 144.617 59.448,151.880 59.516,153.572 60.053 C 171.719 65.804,170.052 86.414,150.400 99.251 C 146.295 101.932,138.713 105.676,135.000 106.855 C 134.120 107.135,133.229 107.507,133.020 107.682 C 132.811 107.857,132.237 108.000,131.744 108.000 C 131.251 108.000,130.736 108.180,130.600 108.400 C 130.464 108.620,130.001 108.800,129.571 108.800 C 129.141 108.800,128.477 108.962,128.095 109.161 C 127.713 109.360,126.590 109.740,125.600 110.007 C 124.610 110.273,123.440 110.637,123.000 110.815 C 122.560 110.994,121.750 111.231,121.200 111.342 C 120.650 111.453,119.480 111.754,118.600 112.009 C 117.720 112.265,116.413 112.568,115.696 112.681 C 114.979 112.795,114.294 113.049,114.173 113.244 C 114.052 113.440,113.522 113.600,112.995 113.600 C 112.469 113.600,111.624 113.761,111.119 113.958 C 110.613 114.155,109.480 114.507,108.600 114.739 C 105.714 115.502,98.656 117.674,95.800 118.679 C 92.673 119.779,92.204 119.964,89.504 121.160 C 88.462 121.622,87.499 122.000,87.365 122.000 C 87.038 122.000,80.253 125.295,80.000 125.577 C 79.890 125.700,79.395 126.025,78.900 126.300 C 78.405 126.575,77.595 127.025,77.100 127.300 C 76.605 127.575,76.110 127.910,76.000 128.044 C 75.309 128.888,72.800 129.791,72.800 129.196 C 72.800 128.973,72.461 128.028,72.047 127.096 C 71.633 126.163,71.075 124.770,70.807 124.000 C 70.539 123.230,70.166 122.240,69.980 121.800 C 69.097 119.719,67.824 115.506,67.170 112.500 C 66.966 111.565,66.610 109.945,66.379 108.900 C 63.794 97.242,63.217 76.891,65.229 68.400 C 65.464 67.410,65.846 65.790,66.078 64.800 C 68.831 53.044,77.172 40.158,83.979 37.145 C 84.651 36.848,85.200 36.469,85.200 36.302 C 85.200 36.136,85.524 36.000,85.920 36.000 C 86.316 36.000,86.811 35.831,87.020 35.625 C 87.802 34.854,99.759 34.879,101.274 35.655 M202.105 73.908 C 199.561 77.015,200.975 79.450,208.675 85.223 C 211.714 87.501,214.290 89.463,214.400 89.582 C 214.510 89.702,215.769 90.790,217.198 92.000 C 221.857 95.945,225.323 99.821,230.969 107.400 C 232.444 109.380,233.910 111.317,234.226 111.705 C 234.542 112.092,234.800 112.493,234.800 112.596 C 234.800 112.699,235.519 113.732,236.398 114.892 C 237.277 116.051,237.997 117.197,237.998 117.438 C 237.999 117.679,238.360 118.202,238.800 118.600 C 239.240 118.998,239.600 119.538,239.600 119.800 C 239.600 120.062,239.960 120.602,240.400 121.000 C 240.840 121.398,241.200 121.914,241.200 122.147 C 241.200 122.930,244.557 126.000,245.414 126.000 C 246.301 126.000,247.573 124.833,248.370 123.289 C 248.770 122.514,248.656 122.016,247.615 119.967 C 245.700 116.198,243.547 112.301,242.738 111.138 C 242.332 110.554,242.000 109.967,242.000 109.832 C 242.000 109.539,239.157 105.051,236.400 100.992 C 222.628 80.717,206.780 68.201,202.105 73.908 M164.383 103.700 C 164.373 104.195,164.200 105.410,163.998 106.400 C 162.924 111.654,165.124 118.936,169.653 125.118 L 171.506 127.648 170.742 129.924 C 169.996 132.148,169.829 132.708,168.812 136.400 C 168.540 137.390,168.155 138.613,167.958 139.119 C 167.761 139.624,167.600 140.469,167.600 140.995 C 167.600 141.522,167.439 142.052,167.242 142.174 C 167.045 142.295,166.790 143.071,166.675 143.897 C 166.560 144.724,166.261 146.210,166.011 147.200 C 165.109 150.771,163.910 156.419,162.742 162.600 C 161.890 167.106,161.538 169.542,161.356 172.200 C 160.999 177.421,160.179 177.085,159.574 171.470 C 159.240 168.372,158.662 163.888,158.199 160.800 C 158.083 160.030,157.800 157.870,157.570 156.000 C 157.340 154.130,156.992 151.610,156.797 150.400 C 156.601 149.190,156.245 146.850,156.006 145.200 C 155.537 141.965,154.186 133.845,153.577 130.600 C 153.209 128.635,152.937 127.384,152.016 123.400 C 151.762 122.300,151.394 120.680,151.199 119.800 C 151.003 118.920,150.641 117.390,150.393 116.400 C 149.324 112.133,149.299 112.241,151.664 111.072 C 154.795 109.525,157.206 108.086,158.877 106.766 C 159.689 106.125,160.466 105.600,160.603 105.600 C 160.741 105.600,161.516 104.972,162.327 104.203 C 164.054 102.567,164.406 102.480,164.383 103.700 M244.629 195.175 C 244.474 198.241,244.182 201.886,243.981 203.275 C 243.780 204.664,243.612 206.718,243.608 207.840 C 243.598 210.463,242.985 212.187,241.784 212.974 C 240.925 213.537,232.917 213.600,162.484 213.600 L 84.139 213.600 83.329 212.700 C 81.799 211.000,81.780 210.858,80.948 194.700 L 80.685 189.600 162.799 189.600 L 244.912 189.600 244.629 195.175 M233.847 228.500 C 233.586 231.647,233.019 236.573,232.409 241.000 C 232.196 242.540,231.846 245.150,231.630 246.800 C 231.415 248.450,231.050 251.105,230.819 252.700 C 230.589 254.295,230.227 256.815,230.016 258.300 C 229.804 259.785,229.437 262.260,229.200 263.800 C 228.963 265.340,228.608 267.770,228.411 269.200 C 228.019 272.042,226.651 281.131,226.017 285.102 C 225.798 286.478,225.420 288.908,225.179 290.502 C 224.686 293.750,224.169 296.230,223.493 298.600 C 223.042 300.177,220.090 306.411,219.609 306.800 C 219.473 306.910,218.930 307.630,218.402 308.400 C 214.471 314.133,205.080 320.882,198.400 322.773 C 197.410 323.054,196.150 323.490,195.600 323.742 C 194.267 324.353,137.928 324.609,133.600 324.024 C 128.777 323.372,127.606 323.133,127.373 322.756 C 127.252 322.560,126.831 322.400,126.438 322.400 C 125.813 322.400,120.871 320.057,118.600 318.684 C 115.201 316.629,109.598 311.552,107.248 308.400 C 106.674 307.630,106.105 306.910,105.984 306.800 C 105.200 306.090,102.320 299.674,101.669 297.188 C 100.883 294.186,99.686 287.089,98.434 278.000 C 98.207 276.350,97.924 274.370,97.806 273.600 C 97.688 272.830,97.419 270.940,97.209 269.400 C 96.999 267.860,96.634 265.250,96.397 263.600 C 95.958 260.539,95.416 256.404,94.797 251.400 C 94.606 249.860,94.247 246.980,93.998 245.000 C 93.322 239.615,92.917 235.893,92.466 230.909 C 92.242 228.439,91.945 226.234,91.806 226.009 C 91.634 225.731,114.344 225.600,162.820 225.600 L 234.087 225.600 233.847 228.500 M131.039 239.336 C 128.096 240.156,125.094 243.541,123.251 248.119 C 122.710 249.461,122.650 255.326,123.166 256.305 C 123.368 256.687,123.806 257.630,124.140 258.400 C 126.730 264.371,135.360 265.822,140.007 261.068 C 143.236 257.765,144.933 248.371,142.700 246.163 C 142.535 246.000,142.400 245.599,142.400 245.272 C 142.400 244.419,139.993 241.382,138.712 240.618 C 136.081 239.049,133.574 238.630,131.039 239.336 M189.200 239.395 C 188.430 239.670,187.040 240.647,186.110 241.565 C 184.551 243.107,184.125 243.806,182.856 246.919 C 182.293 248.301,182.247 256.258,182.800 256.600 C 183.020 256.736,183.200 257.197,183.200 257.624 C 183.200 258.051,183.380 258.400,183.600 258.400 C 183.820 258.400,184.000 258.635,184.000 258.922 C 184.000 262.266,191.979 265.219,196.200 263.436 C 201.299 261.284,204.924 251.960,202.460 247.336 C 202.244 246.931,201.770 245.918,201.407 245.084 C 199.326 240.304,193.829 237.743,189.200 239.395 M130.800 278.000 C 126.710 282.090,132.464 290.501,143.400 296.417 C 144.720 297.131,145.980 297.840,146.200 297.992 C 152.743 302.523,170.312 302.507,179.852 297.961 C 185.890 295.084,193.925 288.438,195.723 284.833 C 198.830 278.606,192.407 273.232,187.881 278.272 C 184.573 281.957,180.471 285.906,179.345 286.491 C 178.351 287.007,177.399 287.490,173.905 289.250 C 173.523 289.443,172.859 289.600,172.429 289.600 C 171.999 289.600,171.550 289.757,171.431 289.950 C 170.692 291.146,156.109 291.148,155.370 289.951 C 155.251 289.758,154.711 289.600,154.171 289.600 C 153.631 289.600,152.877 289.441,152.495 289.247 C 152.113 289.052,151.260 288.671,150.600 288.400 C 146.183 286.584,142.238 283.751,137.839 279.235 C 134.398 275.703,133.291 275.509,130.800 278.000 " stroke="none" fill="#0c0c0c" fill-rule="evenodd"></path><path id="path1" d="M0.000 200.000 L 0.000 400.000 200.000 400.000 L 400.000 400.000 400.000 200.000 L 400.000 0.000 200.000 0.000 L 0.000 0.000 0.000 200.000 M239.674 21.646 C 240.044 21.841,240.751 22.000,241.245 22.000 C 243.585 22.000,251.112 25.080,255.781 27.949 C 261.763 31.623,269.969 40.419,272.809 46.200 C 273.133 46.860,273.491 47.490,273.605 47.600 C 273.851 47.839,275.221 50.701,276.285 53.200 C 276.975 54.820,277.710 57.089,279.248 62.348 C 280.070 65.156,279.954 68.243,279.000 68.994 C 278.106 69.697,272.128 69.607,266.400 68.806 C 257.737 67.594,240.297 66.743,239.543 67.497 C 239.149 67.891,244.522 70.734,247.400 71.653 C 248.280 71.933,249.171 72.307,249.380 72.482 C 249.589 72.657,250.163 72.800,250.656 72.800 C 251.149 72.800,251.664 72.980,251.800 73.200 C 251.936 73.420,252.476 73.600,253.000 73.600 C 253.524 73.600,254.064 73.780,254.200 74.000 C 254.336 74.220,254.799 74.400,255.229 74.400 C 255.659 74.400,256.323 74.562,256.705 74.761 C 257.087 74.960,258.210 75.340,259.200 75.607 C 260.190 75.873,261.360 76.239,261.800 76.419 C 262.240 76.600,263.320 76.976,264.200 77.255 C 265.080 77.535,265.971 77.907,266.180 78.082 C 266.389 78.257,266.796 78.400,267.084 78.400 C 270.396 78.400,277.626 84.073,279.162 87.877 C 280.062 90.105,279.455 100.071,278.004 106.900 C 276.758 112.763,276.289 114.651,274.823 119.700 C 274.615 120.415,274.274 121.630,274.064 122.400 C 273.337 125.074,272.324 128.204,271.963 128.895 C 271.763 129.277,271.600 129.941,271.600 130.371 C 271.600 130.801,271.420 131.264,271.200 131.400 C 270.980 131.536,270.800 131.999,270.800 132.429 C 270.800 132.859,270.634 133.523,270.432 133.905 C 270.230 134.287,269.672 135.680,269.193 137.000 C 267.988 140.321,267.957 140.400,266.428 144.100 C 262.854 152.749,258.590 161.422,257.554 162.147 C 256.543 162.855,252.000 163.086,252.000 162.429 C 252.000 162.225,251.740 162.000,251.422 161.929 C 251.105 161.858,249.620 160.614,248.122 159.164 C 243.858 155.034,237.422 151.200,234.755 151.200 C 234.366 151.200,233.951 151.044,233.833 150.854 C 233.716 150.664,232.940 150.397,232.110 150.262 C 231.279 150.127,229.790 149.823,228.800 149.586 C 225.892 148.891,223.492 148.371,222.096 148.134 C 221.379 148.012,220.694 147.751,220.573 147.556 C 220.452 147.360,220.001 147.200,219.571 147.200 C 219.141 147.200,218.477 147.035,218.095 146.834 C 217.713 146.632,216.680 146.154,215.800 145.770 C 210.042 143.262,207.300 137.319,206.400 125.400 C 205.921 119.056,205.526 116.746,204.499 114.289 C 202.906 110.473,202.381 113.799,202.141 129.223 L 201.957 141.047 200.983 142.181 C 199.148 144.316,196.981 143.887,189.000 139.809 C 185.260 137.899,182.029 136.170,181.820 135.968 C 180.988 135.162,180.829 135.494,180.137 139.504 C 180.013 140.221,179.751 140.906,179.556 141.027 C 179.360 141.148,179.200 141.766,179.200 142.400 C 179.200 143.034,179.040 143.652,178.844 143.773 C 178.649 143.894,178.388 144.579,178.266 145.296 C 178.031 146.679,177.520 149.041,176.815 152.000 C 176.151 154.788,174.962 161.516,174.375 165.800 C 173.790 170.075,173.458 176.181,173.749 177.339 L 174.009 178.375 212.544 178.287 C 245.535 178.213,251.245 178.283,252.239 178.780 C 253.882 179.601,256.000 181.639,256.000 182.398 C 256.000 182.751,256.200 183.240,256.445 183.485 C 256.954 183.994,256.630 191.229,255.249 210.200 C 254.636 218.616,253.219 221.407,248.200 224.086 L 246.200 225.153 245.506 230.476 C 245.124 233.404,244.618 237.420,244.381 239.400 C 243.599 245.945,243.020 250.240,241.968 257.300 C 241.730 258.895,241.376 261.280,241.180 262.600 C 240.984 263.920,240.652 266.080,240.442 267.400 C 240.232 268.720,239.864 271.060,239.625 272.600 C 239.385 274.140,239.014 276.480,238.800 277.800 C 238.586 279.120,238.215 281.460,237.975 283.000 C 237.736 284.540,237.374 286.835,237.170 288.100 C 236.967 289.365,236.634 291.435,236.430 292.700 C 235.951 295.681,235.615 297.211,235.222 298.200 C 235.048 298.640,234.508 300.260,234.023 301.800 C 230.117 314.201,220.560 325.557,209.320 331.153 C 203.929 333.836,201.584 334.589,195.554 335.570 C 192.007 336.147,132.701 336.164,130.077 335.589 C 129.045 335.362,127.300 334.989,126.200 334.759 C 123.176 334.127,121.504 333.523,117.400 331.581 C 114.706 330.306,110.371 327.608,109.271 326.522 C 108.981 326.235,108.583 326.000,108.387 326.000 C 105.794 326.000,94.839 311.378,91.904 304.000 C 91.686 303.450,91.348 302.687,91.153 302.305 C 90.959 301.923,90.800 301.259,90.800 300.829 C 90.800 300.399,90.640 299.948,90.444 299.827 C 90.249 299.706,89.973 298.931,89.831 298.104 C 88.094 287.960,86.829 279.702,85.158 267.600 C 84.930 265.950,84.594 263.520,84.411 262.200 C 84.228 260.880,83.880 258.180,83.637 256.200 C 83.395 254.220,83.013 251.160,82.788 249.400 C 82.309 245.656,81.900 242.048,81.020 233.792 C 80.292 226.958,79.997 225.578,79.179 225.177 C 78.861 225.021,78.063 224.647,77.406 224.346 C 73.765 222.681,70.843 218.647,70.200 214.400 C 69.941 212.687,69.450 203.182,68.954 190.282 C 68.703 183.775,68.920 182.796,71.108 180.545 C 73.305 178.286,71.234 178.400,109.969 178.400 C 133.695 178.400,146.317 178.260,147.032 177.988 L 148.116 177.576 147.830 173.888 C 147.311 167.194,146.274 158.988,144.028 143.800 C 143.393 139.505,142.384 133.771,141.600 130.000 C 140.944 126.845,140.437 124.241,140.199 122.800 C 139.874 120.837,139.117 118.398,138.836 118.409 C 138.578 118.420,133.575 119.783,128.500 121.227 C 127.675 121.461,126.280 121.829,125.400 122.045 C 122.498 122.755,121.020 123.141,119.400 123.611 C 118.520 123.866,117.213 124.168,116.496 124.281 C 115.779 124.395,115.094 124.649,114.973 124.844 C 114.852 125.040,114.234 125.200,113.600 125.200 C 112.966 125.200,112.336 125.380,112.200 125.600 C 112.064 125.820,111.434 126.000,110.800 126.000 C 110.166 126.000,109.536 126.180,109.400 126.400 C 109.264 126.620,108.724 126.800,108.200 126.800 C 107.676 126.800,107.136 126.980,107.000 127.200 C 106.864 127.420,106.324 127.600,105.800 127.600 C 105.276 127.600,104.736 127.780,104.600 128.000 C 104.464 128.220,103.924 128.400,103.400 128.400 C 102.876 128.400,102.336 128.580,102.200 128.800 C 102.064 129.020,101.601 129.200,101.171 129.200 C 100.741 129.200,100.077 129.359,99.695 129.553 C 99.313 129.748,98.505 130.108,97.900 130.353 C 97.295 130.599,96.395 130.968,95.900 131.173 C 89.656 133.758,79.421 139.647,76.600 142.276 C 72.698 145.913,68.727 146.041,66.500 142.601 C 66.005 141.837,65.600 141.056,65.600 140.867 C 65.600 140.678,65.347 140.000,65.038 139.361 C 64.080 137.380,62.974 134.738,61.623 131.200 C 60.908 129.330,60.170 127.440,59.982 127.000 C 59.795 126.560,59.248 124.940,58.768 123.400 C 58.288 121.860,57.752 120.240,57.578 119.800 C 57.250 118.973,56.901 117.481,56.549 115.400 C 56.437 114.740,56.189 113.840,55.998 113.400 C 55.806 112.960,55.542 111.880,55.412 111.000 C 55.281 110.120,54.995 108.320,54.776 107.000 C 53.679 100.379,53.449 96.905,53.426 86.600 C 53.401 76.001,53.704 71.416,54.814 65.600 C 55.044 64.390,55.336 62.813,55.461 62.096 C 55.586 61.379,55.849 60.694,56.044 60.573 C 56.240 60.452,56.400 59.834,56.400 59.200 C 56.400 58.566,56.580 57.936,56.800 57.800 C 57.020 57.664,57.200 57.201,57.200 56.771 C 57.200 56.341,57.366 55.677,57.568 55.295 C 57.770 54.913,58.346 53.520,58.847 52.200 C 63.219 40.689,73.453 28.935,82.097 25.497 C 86.991 23.551,87.576 23.451,93.800 23.503 C 107.663 23.619,116.555 27.347,123.607 36.000 C 124.593 37.210,125.535 38.260,125.700 38.333 C 125.865 38.407,126.000 38.688,126.000 38.958 C 126.000 39.228,126.315 39.806,126.700 40.242 C 127.833 41.525,130.106 45.756,131.188 48.600 C 132.005 50.746,132.555 51.571,132.965 51.267 C 133.204 51.089,134.210 50.711,135.200 50.426 C 136.190 50.142,137.360 49.763,137.800 49.585 C 138.240 49.406,139.140 49.147,139.800 49.009 C 140.460 48.870,141.810 48.579,142.800 48.361 C 147.687 47.286,152.401 47.450,157.600 48.876 C 158.988 49.256,164.016 51.575,164.400 52.011 C 164.510 52.136,165.230 52.664,166.000 53.185 C 170.627 56.311,174.857 62.200,176.355 67.600 C 176.630 68.590,177.022 69.953,177.227 70.628 C 177.432 71.304,177.600 73.659,177.600 75.862 C 177.600 80.588,177.636 80.654,179.390 79.101 C 180.136 78.441,181.145 77.698,181.634 77.450 C 183.008 76.753,183.487 75.752,182.897 74.807 C 182.624 74.369,182.400 73.659,182.400 73.229 C 182.400 72.799,182.220 72.336,182.000 72.200 C 181.780 72.064,181.600 71.434,181.600 70.800 C 181.600 70.166,181.447 69.552,181.259 69.437 C 179.978 68.645,179.971 51.360,181.252 50.568 C 181.443 50.450,181.600 49.911,181.600 49.371 C 181.600 48.831,181.760 48.077,181.956 47.695 C 182.152 47.313,182.731 46.100,183.242 45.000 C 186.998 36.920,195.735 29.294,205.000 26.009 C 206.320 25.541,207.713 24.987,208.095 24.779 C 208.477 24.570,209.141 24.400,209.571 24.400 C 210.001 24.400,210.451 24.241,210.571 24.046 C 210.692 23.851,211.287 23.590,211.895 23.464 C 212.503 23.339,213.900 23.047,215.000 22.816 C 219.506 21.871,222.422 21.476,226.600 21.244 C 231.917 20.949,238.748 21.159,239.674 21.646 M220.400 33.267 C 219.410 33.472,218.047 33.810,217.372 34.019 C 216.696 34.229,215.762 34.400,215.295 34.400 C 214.829 34.400,214.336 34.580,214.200 34.800 C 214.064 35.020,213.601 35.200,213.171 35.200 C 212.741 35.200,212.077 35.365,211.695 35.566 C 211.313 35.768,210.280 36.237,209.400 36.610 C 196.111 42.234,190.090 50.874,190.485 63.750 C 190.669 69.728,191.360 72.303,194.037 76.976 C 195.676 79.838,195.783 80.800,194.463 80.800 C 192.249 80.800,181.521 90.283,178.086 95.275 C 171.667 104.605,172.317 112.703,180.144 120.900 C 182.957 123.847,188.071 127.288,190.393 127.799 L 191.600 128.064 191.600 123.778 C 191.600 118.338,192.587 111.767,193.834 108.900 C 195.365 105.383,195.901 104.521,197.901 102.360 C 200.541 99.508,201.890 98.800,204.677 98.800 C 211.227 98.800,213.681 103.442,215.987 120.200 C 216.383 123.080,217.029 127.451,217.450 130.104 C 217.581 130.931,217.849 131.706,218.044 131.827 C 218.240 131.948,218.400 132.363,218.400 132.749 C 218.400 134.866,223.354 137.410,229.400 138.399 C 233.326 139.041,236.222 139.580,237.652 139.934 C 240.804 140.716,246.862 144.186,250.101 147.065 C 251.973 148.730,252.462 148.735,253.160 147.100 C 253.465 146.385,254.206 144.720,254.807 143.400 C 255.867 141.074,256.602 139.402,257.754 136.700 C 258.059 135.985,258.672 134.410,259.116 133.200 C 259.559 131.990,260.228 130.190,260.603 129.200 C 261.590 126.588,263.375 120.720,264.374 116.800 C 265.833 111.082,265.937 110.659,266.342 108.800 C 268.575 98.566,269.124 91.863,267.845 90.450 C 267.134 89.664,263.420 87.600,262.717 87.600 C 262.538 87.600,261.628 87.252,260.696 86.827 C 259.763 86.403,258.190 85.784,257.200 85.453 C 236.614 78.569,230.574 75.639,227.437 71.016 C 225.343 67.930,226.393 63.574,229.834 61.077 C 231.483 59.880,232.378 59.536,236.800 58.395 C 241.669 57.140,253.338 57.049,264.900 58.178 C 266.784 58.361,266.773 58.174,264.676 54.312 C 259.259 44.331,250.334 36.652,241.100 34.026 C 240.275 33.792,239.002 33.420,238.272 33.200 C 236.633 32.707,222.867 32.758,220.400 33.267 M89.200 35.100 C 88.210 35.183,87.229 35.419,87.020 35.625 C 86.811 35.831,86.316 36.000,85.920 36.000 C 85.524 36.000,85.200 36.136,85.200 36.302 C 85.200 36.469,84.651 36.848,83.979 37.145 C 77.172 40.158,68.831 53.044,66.078 64.800 C 65.846 65.790,65.464 67.410,65.229 68.400 C 63.217 76.891,63.794 97.242,66.379 108.900 C 66.610 109.945,66.966 111.565,67.170 112.500 C 67.824 115.506,69.097 119.719,69.980 121.800 C 70.166 122.240,70.539 123.230,70.807 124.000 C 71.075 124.770,71.633 126.163,72.047 127.096 C 72.461 128.028,72.800 128.973,72.800 129.196 C 72.800 129.791,75.309 128.888,76.000 128.044 C 76.110 127.910,76.605 127.575,77.100 127.300 C 77.595 127.025,78.405 126.575,78.900 126.300 C 79.395 126.025,79.890 125.700,80.000 125.577 C 80.253 125.295,87.038 122.000,87.365 122.000 C 87.499 122.000,88.462 121.622,89.504 121.160 C 92.204 119.964,92.673 119.779,95.800 118.679 C 98.656 117.674,105.714 115.502,108.600 114.739 C 109.480 114.507,110.613 114.155,111.119 113.958 C 111.624 113.761,112.469 113.600,112.995 113.600 C 113.522 113.600,114.052 113.440,114.173 113.244 C 114.294 113.049,114.979 112.795,115.696 112.681 C 116.413 112.568,117.720 112.265,118.600 112.009 C 119.480 111.754,120.650 111.453,121.200 111.342 C 121.750 111.231,122.560 110.994,123.000 110.815 C 123.440 110.637,124.610 110.273,125.600 110.007 C 126.590 109.740,127.713 109.360,128.095 109.161 C 128.477 108.962,129.141 108.800,129.571 108.800 C 130.001 108.800,130.464 108.620,130.600 108.400 C 130.736 108.180,131.251 108.000,131.744 108.000 C 132.237 108.000,132.811 107.857,133.020 107.682 C 133.229 107.507,134.120 107.135,135.000 106.855 C 138.713 105.676,146.295 101.932,150.400 99.251 C 170.052 86.414,171.719 65.804,153.572 60.053 C 151.880 59.516,144.617 59.448,142.960 59.953 C 142.322 60.148,140.990 60.544,140.000 60.834 C 135.814 62.062,125.366 68.111,121.150 71.749 C 120.352 72.437,118.473 73.990,116.974 75.200 C 112.492 78.819,106.650 84.106,98.445 91.969 C 88.497 101.502,89.214 101.080,86.700 98.887 C 85.387 97.741,86.207 94.217,88.288 92.071 C 88.569 91.781,88.800 91.389,88.800 91.200 C 88.800 91.011,89.031 90.619,89.313 90.329 C 89.595 90.038,90.262 89.170,90.794 88.400 C 91.326 87.630,91.869 86.910,92.000 86.800 C 92.131 86.690,92.677 85.970,93.214 85.200 C 94.335 83.589,94.923 82.836,96.620 80.837 C 97.291 80.047,98.401 78.680,99.087 77.800 C 102.091 73.949,114.523 62.158,119.325 58.605 C 123.084 55.825,116.966 42.860,109.992 38.826 C 106.889 37.032,104.323 36.015,102.874 36.006 C 102.364 36.003,101.644 35.845,101.274 35.655 C 100.511 35.264,91.939 34.870,89.200 35.100 M210.191 73.995 C 217.213 77.689,226.855 87.219,234.027 97.554 C 238.252 103.642,242.000 109.414,242.000 109.832 C 242.000 109.967,242.332 110.554,242.738 111.138 C 243.547 112.301,245.700 116.198,247.615 119.967 C 248.656 122.016,248.770 122.514,248.370 123.289 C 247.573 124.833,246.301 126.000,245.414 126.000 C 244.557 126.000,241.200 122.930,241.200 122.147 C 241.200 121.914,240.840 121.398,240.400 121.000 C 239.960 120.602,239.600 120.062,239.600 119.800 C 239.600 119.538,239.240 118.998,238.800 118.600 C 238.360 118.202,237.999 117.679,237.998 117.438 C 237.997 117.197,237.277 116.051,236.398 114.892 C 235.519 113.732,234.800 112.699,234.800 112.596 C 234.800 112.493,234.542 112.092,234.226 111.705 C 233.910 111.317,232.444 109.380,230.969 107.400 C 225.323 99.821,221.857 95.945,217.198 92.000 C 215.769 90.790,214.510 89.702,214.400 89.582 C 214.290 89.463,211.714 87.501,208.675 85.223 C 202.187 80.359,201.198 79.239,201.205 76.762 C 201.218 72.687,205.309 71.427,210.191 73.995 M162.327 104.203 C 161.516 104.972,160.741 105.600,160.603 105.600 C 160.466 105.600,159.689 106.125,158.877 106.766 C 157.206 108.086,154.795 109.525,151.664 111.072 C 149.299 112.241,149.324 112.133,150.393 116.400 C 150.641 117.390,151.003 118.920,151.199 119.800 C 151.394 120.680,151.762 122.300,152.016 123.400 C 152.937 127.384,153.209 128.635,153.577 130.600 C 154.186 133.845,155.537 141.965,156.006 145.200 C 156.245 146.850,156.601 149.190,156.797 150.400 C 156.992 151.610,157.340 154.130,157.570 156.000 C 157.800 157.870,158.083 160.030,158.199 160.800 C 158.662 163.888,159.240 168.372,159.574 171.470 C 160.179 177.085,160.999 177.421,161.356 172.200 C 161.538 169.542,161.890 167.106,162.742 162.600 C 163.910 156.419,165.109 150.771,166.011 147.200 C 166.261 146.210,166.560 144.724,166.675 143.897 C 166.790 143.071,167.045 142.295,167.242 142.174 C 167.439 142.052,167.600 141.522,167.600 140.995 C 167.600 140.469,167.761 139.624,167.958 139.119 C 168.155 138.613,168.540 137.390,168.812 136.400 C 169.829 132.708,169.996 132.148,170.742 129.924 L 171.506 127.648 169.653 125.118 C 167.486 122.160,166.685 120.808,165.673 118.400 C 164.315 115.169,163.459 109.037,163.998 106.400 C 164.800 102.469,164.531 102.114,162.327 104.203 M80.948 194.700 C 81.780 210.858,81.799 211.000,83.329 212.700 L 84.139 213.600 162.484 213.600 C 232.917 213.600,240.925 213.537,241.784 212.974 C 242.985 212.187,243.598 210.463,243.608 207.840 C 243.612 206.718,243.780 204.664,243.981 203.275 C 244.182 201.886,244.474 198.241,244.629 195.175 L 244.912 189.600 162.799 189.600 L 80.685 189.600 80.948 194.700 M91.806 226.009 C 91.945 226.234,92.242 228.439,92.466 230.909 C 92.917 235.893,93.322 239.615,93.998 245.000 C 94.247 246.980,94.606 249.860,94.797 251.400 C 95.416 256.404,95.958 260.539,96.397 263.600 C 96.634 265.250,96.999 267.860,97.209 269.400 C 97.419 270.940,97.688 272.830,97.806 273.600 C 97.924 274.370,98.207 276.350,98.434 278.000 C 99.686 287.089,100.883 294.186,101.669 297.188 C 102.320 299.674,105.200 306.090,105.984 306.800 C 106.105 306.910,106.674 307.630,107.248 308.400 C 109.598 311.552,115.201 316.629,118.600 318.684 C 120.871 320.057,125.813 322.400,126.438 322.400 C 126.831 322.400,127.252 322.560,127.373 322.756 C 127.606 323.133,128.777 323.372,133.600 324.024 C 137.928 324.609,194.267 324.353,195.600 323.742 C 196.150 323.490,197.410 323.054,198.400 322.773 C 205.080 320.882,214.471 314.133,218.402 308.400 C 218.930 307.630,219.473 306.910,219.609 306.800 C 221.373 305.372,224.159 297.219,225.179 290.502 C 225.420 288.908,225.798 286.478,226.017 285.102 C 226.651 281.131,228.019 272.042,228.411 269.200 C 228.608 267.770,228.963 265.340,229.200 263.800 C 229.437 262.260,229.804 259.785,230.016 258.300 C 230.227 256.815,230.589 254.295,230.819 252.700 C 231.050 251.105,231.415 248.450,231.630 246.800 C 231.846 245.150,232.196 242.540,232.409 241.000 C 233.019 236.573,233.586 231.647,233.847 228.500 L 234.087 225.600 162.820 225.600 C 114.344 225.600,91.634 225.731,91.806 226.009 M135.712 239.389 C 138.968 240.377,142.400 243.396,142.400 245.272 C 142.400 245.599,142.535 246.000,142.700 246.163 C 144.933 248.371,143.236 257.765,140.007 261.068 C 135.360 265.822,126.730 264.371,124.140 258.400 C 123.806 257.630,123.368 256.687,123.166 256.305 C 122.650 255.326,122.710 249.461,123.251 248.119 C 126.102 241.038,130.649 237.853,135.712 239.389 M196.136 239.788 C 198.520 240.878,200.398 242.765,201.407 245.084 C 201.770 245.918,202.244 246.931,202.460 247.336 C 204.924 251.960,201.299 261.284,196.200 263.436 C 191.979 265.219,184.000 262.266,184.000 258.922 C 184.000 258.635,183.820 258.400,183.600 258.400 C 183.380 258.400,183.200 258.051,183.200 257.624 C 183.200 257.197,183.020 256.736,182.800 256.600 C 182.247 256.258,182.293 248.301,182.856 246.919 C 184.125 243.806,184.551 243.107,186.110 241.565 C 189.015 238.694,192.424 238.090,196.136 239.788 M137.839 279.235 C 142.238 283.751,146.183 286.584,150.600 288.400 C 151.260 288.671,152.113 289.052,152.495 289.247 C 152.877 289.441,153.631 289.600,154.171 289.600 C 154.711 289.600,155.251 289.758,155.370 289.951 C 156.109 291.148,170.692 291.146,171.431 289.950 C 171.550 289.757,171.999 289.600,172.429 289.600 C 172.859 289.600,173.523 289.443,173.905 289.250 C 177.399 287.490,178.351 287.007,179.345 286.491 C 180.471 285.906,184.573 281.957,187.881 278.272 C 192.407 273.232,198.830 278.606,195.723 284.833 C 193.925 288.438,185.890 295.084,179.852 297.961 C 170.312 302.507,152.743 302.523,146.200 297.992 C 145.980 297.840,144.720 297.131,143.400 296.417 C 132.464 290.501,126.710 282.090,130.800 278.000 C 133.291 275.509,134.398 275.703,137.839 279.235 " stroke="none" fill="#fbfbfb" fill-rule="evenodd"></path></g></svg>