<svg id="svg" version="1.1" xmlns="http://www.w3.org/2000/svg" xmlns:xlink="http://www.w3.org/1999/xlink" width="400" height="400" viewBox="0, 0, 400,400"><g id="svgg"><path id="path0" d="M163.122 46.523 C 152.779 51.025,137.372 78.878,132.316 102.216 C 131.396 106.459,130.536 110.038,130.403 110.171 C 130.271 110.303,128.705 108.522,126.923 106.212 C 117.111 93.495,97.976 79.843,89.962 79.843 C 80.568 79.843,76.200 90.347,76.940 111.155 C 78.124 144.449,91.391 172.603,119.913 202.348 L 128.170 210.959 106.551 210.959 C 74.900 210.959,73.578 212.023,73.586 237.467 C 73.592 256.875,75.700 262.199,84.297 264.514 C 88.066 265.529,87.206 260.823,90.820 300.196 C 95.149 347.347,100.238 357.294,124.427 365.881 L 131.115 368.255 166.341 368.266 C 209.771 368.280,214.372 367.387,226.769 356.543 C 238.937 345.898,240.118 341.676,244.607 292.759 C 247.306 263.344,246.847 265.652,250.226 264.537 C 259.004 261.640,261.448 255.798,261.448 237.718 C 261.448 212.308,259.105 210.568,224.887 210.568 L 203.892 210.568 213.745 200.587 C 244.667 169.264,256.951 141.179,255.771 104.503 C 254.828 75.206,246.562 70.833,222.588 86.948 C 219.206 89.222,213.421 94.122,209.733 97.836 L 203.028 104.590 201.244 97.109 C 197.139 79.899,188.332 62.767,177.744 51.399 C 172.190 45.435,168.470 44.195,163.122 46.523 M170.692 61.620 C 180.080 72.313,187.964 89.800,191.001 106.667 C 193.109 118.372,193.060 118.938,189.087 128.538 C 183.691 141.577,177.861 161.018,173.525 180.431 C 173.333 181.292,173.135 169.380,173.085 153.960 C 172.980 121.409,172.548 119.658,165.258 122.199 C 162.022 123.327,162.166 121.851,161.954 156.078 C 161.848 173.124,161.631 186.941,161.472 186.782 C 161.312 186.622,160.480 183.543,159.622 179.939 C 155.922 164.393,150.379 148.363,143.316 132.778 L 140.877 127.396 142.059 117.808 C 144.911 94.670,152.595 74.904,163.589 62.427 C 167.526 57.958,167.481 57.963,170.692 61.620 M243.468 96.841 C 247.817 127.479,235.661 160.457,210.261 186.928 C 194.619 203.230,179.256 214.766,179.256 210.210 C 179.256 208.810,184.597 184.427,187.116 174.326 C 198.926 126.968,210.472 107.673,235.554 93.379 C 242.986 89.144,242.335 88.859,243.468 96.841 M95.430 94.453 C 121.624 109.661,140.744 144.888,151.494 197.750 C 154.183 210.972,154.245 210.568,149.550 210.568 L 145.675 210.568 132.056 197.065 C 100.748 166.021,86.573 135.242,88.714 102.947 C 89.482 91.351,89.673 91.110,95.430 94.453 M247.694 224.322 C 249.782 226.411,249.487 250.709,247.347 252.849 C 245.215 254.981,89.442 254.970,87.367 252.838 C 86.530 251.977,86.077 248.595,85.672 240.185 C 85.053 227.330,85.384 224.899,87.890 223.890 C 91.348 222.499,246.289 222.918,247.694 224.322 M235.611 266.341 C 235.583 271.540,229.082 330.867,228.212 333.860 C 225.239 344.089,215.189 352.953,203.794 355.397 C 201.298 355.932,187.566 356.146,165.128 356.000 L 130.333 355.773 125.104 353.296 C 111.082 346.653,106.719 338.937,104.150 316.243 C 102.206 299.064,99.417 270.369,99.415 267.515 L 99.413 265.362 167.515 265.362 C 221.477 265.362,235.615 265.565,235.611 266.341 M132.210 280.449 C 127.430 283.646,125.757 292.328,128.780 298.241 C 133.923 308.300,147.199 303.439,147.145 291.516 C 147.100 281.324,139.414 275.629,132.210 280.449 M194.912 279.183 C 187.004 282.339,184.967 295.626,191.510 301.371 C 202.151 310.714,214.122 292.531,204.453 281.710 C 202.336 279.342,197.634 278.096,194.912 279.183 M140.632 317.069 C 133.268 322.861,147.065 337.324,162.471 339.963 C 177.398 342.520,196.477 331.492,196.477 320.309 C 196.477 316.085,190.916 313.731,188.257 316.830 C 187.610 317.583,185.785 319.722,184.201 321.583 C 176.223 330.954,156.915 331.214,150.510 322.036 C 146.079 315.687,143.828 314.555,140.632 317.069 " stroke="none" fill="#000000" fill-rule="evenodd"></path></g></svg>