<svg version="1.1" id="Layer_1" xmlns="http://www.w3.org/2000/svg" xmlns:xlink="http://www.w3.org/1999/xlink" x="0px" y="0px"
	 width="100%" viewBox="0 0 1024 1024" enable-background="new 0 0 1024 1024" xml:space="preserve">
<path fill="#000000" opacity="1.000000" stroke="none" 
	d="
M647.378479,809.169556 
	C643.078552,837.153625 638.757019,864.690857 634.570312,892.248596 
	C633.896729,896.682495 633.545837,901.168762 632.320862,905.498718 
	C628.583252,918.710388 618.484192,926.368774 604.742004,926.373108 
	C544.078979,926.392029 483.414459,926.151855 422.753937,926.541809 
	C405.506592,926.652588 394.299347,916.406128 391.794922,900.257385 
	C386.605499,866.795471 381.632446,833.299927 376.596710,799.814270 
	C372.253235,770.931946 367.916016,742.048645 363.668518,713.152161 
	C363.230988,710.175415 361.736328,709.395447 358.987335,709.264160 
	C346.074677,708.647217 343.859161,706.061646 342.551544,693.141663 
	C340.579346,673.655701 338.272156,654.199951 335.822266,634.767395 
	C334.482208,624.138306 339.697449,617.748840 350.568146,617.739563 
	C398.898529,617.698364 447.228943,617.701050 495.559326,617.685181 
	C502.637451,617.682861 502.647461,617.676270 502.651031,610.495667 
	C502.659576,593.330017 502.586548,576.163879 502.722992,558.999268 
	C502.748810,555.752258 501.817078,553.319763 499.581207,550.996094 
	C486.874695,537.790161 474.204865,524.547058 461.688446,511.161469 
	C458.936981,508.218964 456.042938,507.145325 452.050964,507.254730 
	C430.892395,507.834473 409.878510,507.189941 389.124451,501.961395 
	C339.126709,489.365479 305.724426,458.171509 285.994751,411.288300 
	C276.637787,389.053558 271.425110,365.787689 268.578735,341.911316 
	C267.791992,335.311584 266.471466,328.762512 266.700226,322.081146 
	C266.929626,315.381073 271.150024,310.823975 277.505615,310.694153 
	C314.320496,309.942047 350.101318,314.791382 384.059906,330.027435 
	C426.964172,349.277100 453.758087,382.251190 467.360046,426.703766 
	C473.701843,447.429352 476.341644,468.608276 475.302032,490.222565 
	C475.086548,494.703217 476.195618,498.075592 479.452972,501.294647 
	C487.111389,508.862946 494.411957,516.793335 502.933624,525.702393 
	C502.933624,521.624878 502.933350,519.028503 502.933685,516.432129 
	C502.939240,475.434692 502.880249,434.437012 503.039917,393.440155 
	C503.057983,388.805969 501.210205,385.819092 498.125916,382.638062 
	C472.332184,356.034882 449.086975,327.711426 437.501892,291.596649 
	C427.010254,258.890472 429.544556,226.693100 441.047394,194.861038 
	C452.154633,164.123795 469.724030,137.474808 492.816895,114.429993 
	C496.585358,110.669342 500.496674,107.034103 504.535889,103.566849 
	C509.940735,98.927353 516.455261,98.772675 521.785461,103.476128 
	C558.750671,136.094986 583.977722,175.863708 593.080322,224.681976 
	C600.748413,265.807007 590.106323,303.112640 566.622986,337.190582 
	C554.751404,354.417969 540.789856,369.820038 525.883789,384.408234 
	C524.212219,386.044189 523.313843,387.628082 523.315857,390.012848 
	C523.361389,444.842682 523.347534,499.672577 523.354858,554.502441 
	C523.354919,555.156616 523.487427,555.810791 523.563965,556.519470 
	C525.735779,557.037476 526.588501,555.288879 527.649597,554.221924 
	C534.228271,547.606873 540.653442,540.837830 547.288330,534.280640 
	C549.423218,532.170837 549.867554,529.899048 549.743774,527.076538 
	C548.760742,504.664581 550.442322,482.535187 557.332275,461.030457 
	C575.537781,404.207794 613.636108,367.991608 670.869690,351.723938 
	C689.023682,346.563995 707.645630,344.487488 726.452515,343.555511 
	C733.104858,343.225800 739.746277,342.713867 746.403137,342.935059 
	C753.891357,343.183868 758.837830,347.648834 758.228638,354.842621 
	C754.455261,399.406586 745.839111,442.646057 718.814575,479.752258 
	C693.725342,514.201111 658.608521,532.865051 617.515076,541.272644 
	C602.135986,544.419128 586.554871,545.719482 570.860901,545.283142 
	C567.601013,545.192566 565.250854,546.168213 562.938660,548.490417 
	C550.712402,560.769470 538.406006,572.971741 525.944641,585.011414 
	C523.174500,587.687744 522.013550,590.444580 522.167236,594.230530 
	C522.403625,600.053711 522.451111,605.906189 522.141235,611.722900 
	C521.905212,616.154602 523.129700,618.032593 527.950134,617.785461 
	C535.430054,617.401978 542.945740,617.789612 550.443298,617.667969 
	C592.589600,616.984314 634.713013,619.136658 676.858215,618.645020 
	C685.084473,618.549072 689.781250,623.124573 689.236572,631.367493 
	C688.602844,640.958191 687.110352,650.490417 686.062500,660.055908 
	C684.779907,671.764465 683.350708,683.463257 682.402161,695.200012 
	C681.649963,704.506958 677.271606,709.414246 667.883972,709.168884 
	C663.075806,709.043213 661.945251,711.214355 661.371887,715.179626 
	C657.025635,745.238098 652.581848,775.282532 648.152893,805.329041 
	C647.984009,806.474609 647.655640,807.596619 647.378479,809.169556 
M401.290253,828.491638 
	C404.544617,849.798523 407.651581,871.129395 411.108826,892.403259 
	C413.176849,905.128723 414.561523,906.042664 427.253448,906.049744 
	C486.062531,906.082764 544.871643,906.116516 603.680725,906.155823 
	C608.729919,906.159180 612.652893,903.072144 613.595032,898.119629 
	C614.184448,895.021057 614.528503,891.876465 615.017944,888.758057 
	C619.209290,862.055542 623.499817,835.368225 627.578674,808.648560 
	C631.282654,784.385132 634.770142,760.088623 638.330078,735.803284 
	C639.642456,726.850037 640.888916,717.887146 642.187622,708.773499 
	C640.850342,708.622375 640.201904,708.492920 639.551819,708.483826 
	C626.908081,708.306519 614.273560,709.147705 601.648621,709.189209 
	C530.843933,709.422058 460.038147,709.301880 389.232727,709.310425 
	C383.075867,709.311218 383.196960,709.356262 384.053040,714.956543 
	C386.884796,733.481018 389.546875,752.031250 392.357849,770.558960 
	C395.244598,789.586060 398.229828,808.598328 401.290253,828.491638 
M452.458008,265.052307 
	C457.891174,301.103882 477.472626,329.299835 501.858429,355.706024 
	C503.310547,352.295776 502.949707,349.783752 502.954315,347.338104 
	C502.998993,323.689850 503.022156,300.041443 503.000397,276.393158 
	C502.991974,267.234039 502.720947,258.073700 502.815399,248.916443 
	C502.891785,241.507217 506.705475,236.962128 512.594666,236.683197 
	C519.601685,236.351318 523.330017,240.635696 523.329529,249.157242 
	C523.327576,282.469269 523.283142,315.781342 523.320007,349.093323 
	C523.322205,351.062592 522.518188,353.373627 524.828979,355.308380 
	C534.049927,346.062347 541.940125,336.021942 549.308777,325.573608 
	C571.284668,294.412781 580.149780,260.324677 571.583862,222.590454 
	C564.938110,193.314728 551.239197,167.488174 532.288086,144.365097 
	C526.414368,137.198334 520.354309,130.178543 513.280640,123.646042 
	C493.816711,141.578461 478.724060,162.121201 467.715210,185.539810 
	C456.031281,210.394577 448.795868,236.264740 452.458008,265.052307 
M635.879089,638.442322 
	C624.587708,640.278503 613.303040,638.482544 602.014954,638.460266 
	C522.391724,638.302795 442.768036,638.362061 363.144501,638.384583 
	C361.203064,638.385132 359.159393,637.904175 357.221375,639.041199 
	C357.221375,639.868042 357.150208,640.689758 357.231873,641.496033 
	C358.653381,655.529114 360.142792,669.555542 361.500183,683.594788 
	C361.913940,687.874146 364.158173,688.744202 368.169525,688.739685 
	C464.284058,688.631775 560.398743,688.657288 656.513367,688.658264 
	C657.179688,688.658264 657.850037,688.603638 658.511536,688.658447 
	C661.088562,688.872192 662.283447,687.845215 662.938171,685.176208 
	C663.866577,681.390869 663.594116,677.561279 664.105896,673.771851 
	C665.460144,663.743164 666.433655,653.663635 667.662415,643.617004 
	C668.129944,639.794617 666.924744,638.188843 662.806458,638.311829 
	C654.151978,638.569946 645.484802,638.404907 635.879089,638.442322 
M660.719910,503.193878 
	C685.506226,489.372040 703.982849,469.590698 716.163757,444.008850 
	C725.976013,423.401581 730.906189,401.347626 734.610962,378.991791 
	C735.407166,374.187134 736.913452,369.388428 736.325134,363.964996 
	C685.827515,364.881561 640.116577,376.525146 605.183289,415.748047 
	C580.362305,443.616882 569.398804,486.114807 570.906677,506.344788 
	C584.280151,493.578613 598.708862,479.991852 612.917908,466.179016 
	C623.310242,456.076569 633.361755,445.624359 643.672119,435.436310 
	C647.704895,431.451355 652.455261,430.821930 656.906677,433.313385 
	C661.439148,435.850189 661.794678,440.088013 661.330811,444.605530 
	C661.030579,447.528870 658.826294,449.219147 656.971375,451.091614 
	C634.459167,473.816864 611.917480,496.512909 589.428772,519.261292 
	C588.103943,520.601379 586.120667,521.563416 585.891968,524.440857 
	C612.228027,522.601135 637.000305,516.168030 660.719910,503.193878 
M453.641022,460.712891 
	C452.380432,451.648651 450.374603,442.744263 447.591705,434.034393 
	C440.031311,410.371948 428.987549,388.568390 410.264465,371.810669 
	C376.681610,341.752991 335.571838,332.822235 292.049286,331.336151 
	C289.229980,331.239899 288.206573,332.346619 288.583496,335.257385 
	C291.882538,360.734344 297.122437,385.682037 308.050507,409.151917 
	C319.359741,433.440308 335.351990,453.579865 358.878723,467.169312 
	C379.616821,479.147980 402.234406,484.617706 425.850677,486.563477 
	C428.792786,486.805908 431.959930,487.329163 435.201141,485.747284 
	C434.154175,484.570221 433.430054,483.675018 432.623657,482.861420 
	C411.987152,462.040833 391.335571,441.235260 370.711853,420.402069 
	C369.196564,418.871338 367.636108,417.300140 366.500854,415.493744 
	C362.470917,409.081329 365.601166,401.601868 372.989319,400.049622 
	C377.382416,399.126587 380.548218,401.503204 383.499847,404.460632 
	C405.502441,426.506439 427.551941,448.505432 449.594208,470.511627 
	C451.137238,472.052094 452.740326,473.532440 454.673157,475.383270 
	C455.101288,470.134918 454.181854,465.885620 453.641022,460.712891 
z"/>
</svg>